<svg width="14" height="14" viewBox="0 0 14 14" fill="none" xmlns="http://www.w3.org/2000/svg">
<g id="Home">
<path id="Home_2" d="M5.09584 12.8548V10.8102C5.09583 10.2921 5.51713 9.87115 6.03898 9.86789H7.95509C8.47927 9.86789 8.9042 10.2898 8.9042 10.8102V12.8488C8.90419 13.2982 9.26937 13.6634 9.72198 13.6667H11.0292C11.6398 13.6682 12.2259 13.4285 12.6581 13.0005C13.0904 12.5724 13.3334 11.9912 13.3334 11.385V5.57724C13.3333 5.0876 13.1147 4.62315 12.7364 4.30901L8.29534 0.782856C7.51903 0.166092 6.41027 0.186016 5.65695 0.830266L1.31136 4.30901C0.915181 4.61389 0.678389 5.07972 0.666687 5.57724V11.3791C0.666687 12.6425 1.69827 13.6667 2.9708 13.6667H4.24821C4.46614 13.6682 4.67568 13.5834 4.83034 13.431C4.98499 13.2785 5.07197 13.0711 5.07196 12.8548H5.09584Z" fill="#D23565"/>
</g>
</svg>
