<svg width="19" height="18" viewBox="0 0 19 18" fill="none" xmlns="http://www.w3.org/2000/svg">
<g id="vuesax/bold/notification">
<g id="notification">
<path id="Vector" d="M14.8078 10.8675L14.0578 9.6225C13.9003 9.345 13.7578 8.82 13.7578 8.5125V6.615C13.7578 4.8525 12.7228 3.33 11.2303 2.6175C10.8403 1.9275 10.1203 1.5 9.29527 1.5C8.47777 1.5 7.74277 1.9425 7.35277 2.64C5.89027 3.3675 4.87777 4.875 4.87777 6.615V8.5125C4.87777 8.82 4.73527 9.345 4.57777 9.615L3.82027 10.8675C3.52027 11.37 3.45277 11.925 3.64027 12.435C3.82027 12.9375 4.24777 13.3275 4.80277 13.515C6.25777 14.01 7.78777 14.25 9.31777 14.25C10.8478 14.25 12.3778 14.01 13.8328 13.5225C14.3578 13.35 14.7628 12.9525 14.9578 12.435C15.1528 11.9175 15.1003 11.3475 14.8078 10.8675Z" fill="#D23565"/>
<path id="Vector_2" d="M11.4252 15.0075C11.1102 15.8775 10.2777 16.5 9.30271 16.5C8.71021 16.5 8.12521 16.26 7.71271 15.8325C7.47271 15.6075 7.29271 15.3075 7.18771 15C7.28521 15.015 7.38271 15.0225 7.48771 15.0375C7.66021 15.06 7.84021 15.0825 8.02021 15.0975C8.44771 15.135 8.88271 15.1575 9.31771 15.1575C9.74521 15.1575 10.1727 15.135 10.5927 15.0975C10.7502 15.0825 10.9077 15.075 11.0577 15.0525C11.1777 15.0375 11.2977 15.0225 11.4252 15.0075Z" fill="#D23565"/>
</g>
</g>
</svg>
