<svg width="45" height="50" viewBox="0 0 45 50" fill="none" xmlns="http://www.w3.org/2000/svg">
<g id="Bag">
<path id="Combined Shape" fill-rule="evenodd" clip-rule="evenodd" d="M44.7832 35.7868L42.8609 20.3002C41.6899 14.7741 38.3757 12.5 35.2161 12.5H9.82928C6.62555 12.5 3.20086 14.6149 2.2066 20.3002L0.262262 35.7868C-1.32856 47.1574 4.52654 50 12.1713 50H32.8962C40.5189 50 46.1972 45.8839 44.7832 35.7868ZM15.2425 25.3714C14.0222 25.3714 13.033 24.3533 13.033 23.0973C13.033 21.8414 14.0222 20.8232 15.2425 20.8232C16.4627 20.8232 17.452 21.8414 17.452 23.0973C17.452 24.3533 16.4627 25.3714 15.2425 25.3714ZM27.5051 23.0973C27.5051 24.3533 28.4943 25.3714 29.7145 25.3714C30.9348 25.3714 31.924 24.3533 31.924 23.0973C31.924 21.8414 30.9348 20.8232 29.7145 20.8232C28.4943 20.8232 27.5051 21.8414 27.5051 23.0973Z" fill="#BEC0CA"/>
<path id="Path_34167" opacity="0.4" d="M34.9347 11.9358C34.9425 12.1297 34.9053 12.3228 34.8258 12.5H31.233C31.1634 12.3199 31.1266 12.1288 31.1242 11.9358C31.1242 7.14206 27.2247 3.25596 22.4144 3.25596C17.6041 3.25596 13.7046 7.14206 13.7046 11.9358C13.7376 12.1224 13.7376 12.3134 13.7046 12.5H10.0247C9.99176 12.3134 9.99176 12.1224 10.0247 11.9358C10.3043 5.26477 15.8125 0 22.5124 0C29.2122 0 34.7204 5.26477 35 11.9358H34.9347Z" fill="#BEC0CA"/>
</g>
</svg>
