<svg width="17" height="18" viewBox="0 0 17 18" fill="none" xmlns="http://www.w3.org/2000/svg">
<g id="Bag">
<path id="Path_33955" fill-rule="evenodd" clip-rule="evenodd" d="M11.7614 16.9167H4.80492C2.24962 16.9167 0.289283 15.9937 0.84611 12.279L1.49447 7.24466C1.83772 5.39111 3.02002 4.68173 4.0574 4.68173H12.5395C13.5921 4.68173 14.7058 5.44451 15.1024 7.24466L15.7508 12.279C16.2237 15.5742 14.3167 16.9167 11.7614 16.9167Z" stroke="#130F26" stroke-width="1.5" stroke-linecap="round" stroke-linejoin="round"/>
<path id="Path_33956" d="M11.8759 4.49865C11.8759 2.51026 10.2639 0.898348 8.27555 0.898348V0.898348C7.31805 0.894291 6.39838 1.27182 5.71989 1.94744C5.04139 2.62307 4.65998 3.54114 4.65999 4.49865H4.65999" stroke="#130F26" stroke-width="1.5" stroke-linecap="round" stroke-linejoin="round"/>
<path id="Line_192" d="M10.7469 8.25151H10.7088" stroke="#130F26" stroke-width="1.5" stroke-linecap="round" stroke-linejoin="round"/>
<path id="Line_193" d="M5.88806 8.25151H5.84992" stroke="#130F26" stroke-width="1.5" stroke-linecap="round" stroke-linejoin="round"/>
</g>
</svg>
