<svg width="18" height="19" viewBox="0 0 18 19" fill="none" xmlns="http://www.w3.org/2000/svg">
<g id="Graph">
<path id="Stroke 1" fill-rule="evenodd" clip-rule="evenodd" d="M13.3983 10.5743C13.9605 10.5743 14.4325 11.0384 14.3465 11.5936C13.8421 14.8603 11.0456 17.2857 7.67283 17.2857C3.94125 17.2857 0.916687 14.2612 0.916687 10.5305C0.916687 7.45677 3.25177 4.59362 5.88072 3.94625C6.44563 3.80677 7.02458 4.20414 7.02458 4.78572C7.02458 8.72607 7.15704 9.74537 7.90528 10.2998C8.65353 10.8541 9.53335 10.5743 13.3983 10.5743Z" stroke="#D23565" stroke-width="1.5" stroke-linecap="round" stroke-linejoin="round"/>
<path id="Stroke 3" fill-rule="evenodd" clip-rule="evenodd" d="M17.0772 7.293C17.1219 4.76142 14.0122 0.680718 10.2228 0.750893C9.92803 0.756156 9.69206 1.00177 9.67891 1.29563C9.58329 3.37721 9.71224 6.07458 9.78417 7.29738C9.8061 7.67809 10.1052 7.97721 10.485 7.99914C11.7421 8.07107 14.5377 8.16931 16.5894 7.85879C16.8684 7.81668 17.0728 7.57458 17.0772 7.293Z" stroke="#D23565" stroke-width="1.5" stroke-linecap="round" stroke-linejoin="round"/>
</g>
</svg>
