<svg width="18" height="18" viewBox="0 0 18 18" fill="none" xmlns="http://www.w3.org/2000/svg">
<g id="2 User">
<path id="Stroke 1" fill-rule="evenodd" clip-rule="evenodd" d="M6.99293 11.6723C10.0671 11.6723 12.6946 12.1382 12.6946 13.999C12.6946 15.8598 10.0846 16.339 6.99293 16.339C3.91793 16.339 1.29126 15.8773 1.29126 14.0157C1.29126 12.154 3.90043 11.6723 6.99293 11.6723Z" stroke="#1C1D22" stroke-width="1.5" stroke-linecap="round" stroke-linejoin="round"/>
<path id="Stroke 3" fill-rule="evenodd" clip-rule="evenodd" d="M6.99292 9.01649C4.97459 9.01649 3.33792 7.38066 3.33792 5.36233C3.33792 3.34399 4.97459 1.70816 6.99292 1.70816C9.01042 1.70816 10.6471 3.34399 10.6471 5.36233C10.6546 7.37316 9.02959 9.00899 7.01875 9.01649H6.99292Z" stroke="#1C1D22" stroke-width="1.5" stroke-linecap="round" stroke-linejoin="round"/>
<path id="Stroke 5" d="M12.7359 8.06799C14.0701 7.88049 15.0976 6.73549 15.1001 5.34966C15.1001 3.98382 14.1043 2.85049 12.7984 2.63632" stroke="#1C1D22" stroke-width="1.5" stroke-linecap="round" stroke-linejoin="round"/>
<path id="Stroke 7" d="M14.4962 11.2768C15.7887 11.4693 16.6912 11.9227 16.6912 12.856C16.6912 13.4985 16.2662 13.9152 15.5795 14.176" stroke="#1C1D22" stroke-width="1.5" stroke-linecap="round" stroke-linejoin="round"/>
</g>
</svg>
